Avatar.2009.1080p.BluRay.DTS.mkv
********************************

TiTLE......  Avatar
YEAR.......  2009
GENRE......  Action | Adventure | Fantasy | Sci-Fi  
iMDB RATE..  User Rating: 8.4/10 (225,718 votes)
iMDB URL...  http://www.imdb.com/title/tt0499549/ 
*************************************************
Won 3 Oscars. Another 28 wins & 53 nominations

Video
Duration                         : 2h 41mn
Overall bit rate                 : 7 605 Kbps
Width                            : 1 920 pixels
Height                           : 1 080 pixels
Display aspect ratio             : 16:9
Frame rate                       : 23.976 fps
Stream size                      : 6.71 GiB (78%)

Audio
Format                           : DTS
Format/Info                      : Digital Theater Systems
Bit rate                         : 1 510 Kbps
Channel(s)                       : 6 channels
Channel positions                : Front: L C R, Surround: L R, LFE
Sampling rate                    : 48.0 KHz
Resolution                       : 24 bits
Stream size                      : 1.71 GiB (20%)
Language                         : English

Subtitles: English(only Non-Eng Parts), English, Dutch, French, Finnish, Portuguese, Swedish
********************************************************************************************
